<mxfile host="app.diagrams.net" modified="2020-10-24T11:48:44.253Z" agent="5.0 (Windows NT 10.0; Win64; x64) AppleWebKit/537.36 (KHTML, like Gecko) Chrome/86.0.4240.111 Safari/537.36" etag="oQXmWQwmB6GaJPlWjQJA" version="13.8.1" type="github">
  <diagram id="R2lEEEUBdFMjLlhIrx00" name="Page-1">
    <mxGraphModel dx="1550" dy="876" grid="1" gridSize="10" guides="1" tooltips="1" connect="1" arrows="1" fold="1" page="1" pageScale="1" pageWidth="1100" pageHeight="850" math="0" shadow="0" extFonts="Permanent Marker^https://fonts.googleapis.com/css?family=Permanent+Marker">
      <root>
        <mxCell id="0" />
        <mxCell id="1" parent="0" />
        <mxCell id="pcZwaHEmb3-4tcP9oIlW-1" value="Student" style="whiteSpace=wrap;html=1;align=center;" vertex="1" parent="1">
          <mxGeometry x="720" y="880" width="100" height="40" as="geometry" />
        </mxCell>
        <mxCell id="pcZwaHEmb3-4tcP9oIlW-2" value="Program" style="whiteSpace=wrap;html=1;align=center;" vertex="1" parent="1">
          <mxGeometry x="720" y="405" width="100" height="40" as="geometry" />
        </mxCell>
        <mxCell id="pcZwaHEmb3-4tcP9oIlW-3" value="Course" style="shape=ext;margin=3;double=1;whiteSpace=wrap;html=1;align=center;" vertex="1" parent="1">
          <mxGeometry x="160" y="405" width="100" height="40" as="geometry" />
        </mxCell>
        <mxCell id="pcZwaHEmb3-4tcP9oIlW-4" value="Consists of" style="shape=rhombus;double=1;perimeter=rhombusPerimeter;whiteSpace=wrap;html=1;align=center;" vertex="1" parent="1">
          <mxGeometry x="430" y="395" width="120" height="60" as="geometry" />
        </mxCell>
        <mxCell id="pcZwaHEmb3-4tcP9oIlW-9" value="Relationship" style="shape=rhombus;perimeter=rhombusPerimeter;whiteSpace=wrap;html=1;align=center;" vertex="1" parent="1">
          <mxGeometry x="710" y="630" width="120" height="60" as="geometry" />
        </mxCell>
        <mxCell id="pcZwaHEmb3-4tcP9oIlW-10" value="Name" style="ellipse;whiteSpace=wrap;html=1;align=center;" vertex="1" parent="1">
          <mxGeometry x="620" y="290" width="100" height="40" as="geometry" />
        </mxCell>
        <mxCell id="pcZwaHEmb3-4tcP9oIlW-11" value="Credits Required" style="ellipse;whiteSpace=wrap;html=1;align=center;" vertex="1" parent="1">
          <mxGeometry x="760" y="290" width="100" height="40" as="geometry" />
        </mxCell>
        <mxCell id="pcZwaHEmb3-4tcP9oIlW-12" value="Program ID" style="ellipse;whiteSpace=wrap;html=1;align=center;fontStyle=4;" vertex="1" parent="1">
          <mxGeometry x="900" y="290" width="100" height="40" as="geometry" />
        </mxCell>
        <mxCell id="pcZwaHEmb3-4tcP9oIlW-13" value="Year Commenced" style="ellipse;whiteSpace=wrap;html=1;align=center;" vertex="1" parent="1">
          <mxGeometry x="900" y="370" width="100" height="40" as="geometry" />
        </mxCell>
        <mxCell id="pcZwaHEmb3-4tcP9oIlW-14" value="" style="endArrow=none;html=1;rounded=0;entryX=1;entryY=0;entryDx=0;entryDy=0;exitX=0;exitY=0.5;exitDx=0;exitDy=0;" edge="1" parent="1" source="pcZwaHEmb3-4tcP9oIlW-13" target="pcZwaHEmb3-4tcP9oIlW-2">
          <mxGeometry relative="1" as="geometry">
            <mxPoint x="510" y="260" as="sourcePoint" />
            <mxPoint x="670" y="260" as="targetPoint" />
          </mxGeometry>
        </mxCell>
        <mxCell id="pcZwaHEmb3-4tcP9oIlW-15" value="" style="endArrow=none;html=1;rounded=0;exitX=1;exitY=0;exitDx=0;exitDy=0;entryX=0;entryY=1;entryDx=0;entryDy=0;" edge="1" parent="1" source="pcZwaHEmb3-4tcP9oIlW-2" target="pcZwaHEmb3-4tcP9oIlW-12">
          <mxGeometry relative="1" as="geometry">
            <mxPoint x="520" y="270" as="sourcePoint" />
            <mxPoint x="680" y="270" as="targetPoint" />
          </mxGeometry>
        </mxCell>
        <mxCell id="pcZwaHEmb3-4tcP9oIlW-16" value="" style="endArrow=none;html=1;rounded=0;exitX=1;exitY=0;exitDx=0;exitDy=0;entryX=0.5;entryY=1;entryDx=0;entryDy=0;" edge="1" parent="1" source="pcZwaHEmb3-4tcP9oIlW-2" target="pcZwaHEmb3-4tcP9oIlW-11">
          <mxGeometry relative="1" as="geometry">
            <mxPoint x="920" y="460" as="sourcePoint" />
            <mxPoint x="1080" y="460" as="targetPoint" />
          </mxGeometry>
        </mxCell>
        <mxCell id="pcZwaHEmb3-4tcP9oIlW-17" value="" style="endArrow=none;html=1;rounded=0;entryX=1;entryY=0;entryDx=0;entryDy=0;exitX=0.5;exitY=1;exitDx=0;exitDy=0;" edge="1" parent="1" source="pcZwaHEmb3-4tcP9oIlW-10" target="pcZwaHEmb3-4tcP9oIlW-2">
          <mxGeometry relative="1" as="geometry">
            <mxPoint x="630" y="380" as="sourcePoint" />
            <mxPoint x="790" y="380" as="targetPoint" />
          </mxGeometry>
        </mxCell>
      </root>
    </mxGraphModel>
  </diagram>
</mxfile>
